<mxfile host="app.diagrams.net" modified="2021-09-24T10:13:22.205Z" agent="5.0 (Macintosh; Intel Mac OS X 10_15_7) AppleWebKit/605.1.15 (KHTML, like Gecko) Version/14.1.2 Safari/605.1.15" etag="eG9NBjm6M_MqJwwLBCZv" version="15.3.1" type="github">
  <diagram id="ZvH4bRX5O1ljg9an9Ru-" name="Page-1">
    <mxGraphModel dx="692" dy="667" grid="1" gridSize="10" guides="1" tooltips="1" connect="1" arrows="1" fold="1" page="1" pageScale="1" pageWidth="1169" pageHeight="827" math="0" shadow="0">
      <root>
        <mxCell id="0" />
        <mxCell id="1" parent="0" />
        <mxCell id="4a6mSJSlYVr9C7WGBQAy-1" value="React Frontend" style="rounded=1;whiteSpace=wrap;html=1;" vertex="1" parent="1">
          <mxGeometry x="150" y="110" width="250" height="140" as="geometry" />
        </mxCell>
        <mxCell id="4a6mSJSlYVr9C7WGBQAy-2" value="Java Server&lt;br&gt;&lt;br&gt;API" style="rounded=1;whiteSpace=wrap;html=1;" vertex="1" parent="1">
          <mxGeometry x="150" y="420" width="250" height="140" as="geometry" />
        </mxCell>
        <mxCell id="4a6mSJSlYVr9C7WGBQAy-3" value="Python &lt;br&gt;&lt;br&gt;Calculation Engine&amp;nbsp;" style="rounded=1;whiteSpace=wrap;html=1;" vertex="1" parent="1">
          <mxGeometry x="580" y="420" width="240" height="140" as="geometry" />
        </mxCell>
        <mxCell id="4a6mSJSlYVr9C7WGBQAy-4" value="MongoDB&amp;nbsp;" style="shape=cylinder3;whiteSpace=wrap;html=1;boundedLbl=1;backgroundOutline=1;size=15;" vertex="1" parent="1">
          <mxGeometry x="410" y="630" width="150" height="166" as="geometry" />
        </mxCell>
        <mxCell id="4a6mSJSlYVr9C7WGBQAy-8" value="" style="endArrow=classic;html=1;exitX=0.25;exitY=0;exitDx=0;exitDy=0;entryX=0.25;entryY=1;entryDx=0;entryDy=0;" edge="1" parent="1" source="4a6mSJSlYVr9C7WGBQAy-2" target="4a6mSJSlYVr9C7WGBQAy-1">
          <mxGeometry width="50" height="50" relative="1" as="geometry">
            <mxPoint x="630" y="490" as="sourcePoint" />
            <mxPoint x="680" y="440" as="targetPoint" />
          </mxGeometry>
        </mxCell>
        <mxCell id="4a6mSJSlYVr9C7WGBQAy-10" value="" style="endArrow=classic;html=1;exitX=0.75;exitY=1;exitDx=0;exitDy=0;entryX=0.75;entryY=0;entryDx=0;entryDy=0;" edge="1" parent="1" source="4a6mSJSlYVr9C7WGBQAy-1" target="4a6mSJSlYVr9C7WGBQAy-2">
          <mxGeometry width="50" height="50" relative="1" as="geometry">
            <mxPoint x="630" y="490" as="sourcePoint" />
            <mxPoint x="680" y="440" as="targetPoint" />
            <Array as="points">
              <mxPoint x="338" y="320" />
            </Array>
          </mxGeometry>
        </mxCell>
        <mxCell id="4a6mSJSlYVr9C7WGBQAy-12" value="" style="endArrow=classic;html=1;entryX=1;entryY=0;entryDx=0;entryDy=117;exitX=0.75;exitY=1;exitDx=0;exitDy=0;entryPerimeter=0;" edge="1" parent="1" source="4a6mSJSlYVr9C7WGBQAy-3" target="4a6mSJSlYVr9C7WGBQAy-4">
          <mxGeometry width="50" height="50" relative="1" as="geometry">
            <mxPoint x="630" y="490" as="sourcePoint" />
            <mxPoint x="680" y="440" as="targetPoint" />
          </mxGeometry>
        </mxCell>
        <mxCell id="4a6mSJSlYVr9C7WGBQAy-14" value="" style="endArrow=classic;html=1;exitX=0;exitY=0;exitDx=0;exitDy=117;exitPerimeter=0;entryX=0.25;entryY=1;entryDx=0;entryDy=0;" edge="1" parent="1" source="4a6mSJSlYVr9C7WGBQAy-4" target="4a6mSJSlYVr9C7WGBQAy-2">
          <mxGeometry width="50" height="50" relative="1" as="geometry">
            <mxPoint x="630" y="490" as="sourcePoint" />
            <mxPoint x="267" y="561" as="targetPoint" />
          </mxGeometry>
        </mxCell>
        <mxCell id="4a6mSJSlYVr9C7WGBQAy-16" value="" style="endArrow=classic;html=1;exitX=1;exitY=0.25;exitDx=0;exitDy=0;entryX=0;entryY=0.25;entryDx=0;entryDy=0;" edge="1" parent="1" source="4a6mSJSlYVr9C7WGBQAy-2" target="4a6mSJSlYVr9C7WGBQAy-3">
          <mxGeometry width="50" height="50" relative="1" as="geometry">
            <mxPoint x="630" y="490" as="sourcePoint" />
            <mxPoint x="680" y="440" as="targetPoint" />
            <Array as="points">
              <mxPoint x="510" y="455" />
            </Array>
          </mxGeometry>
        </mxCell>
        <mxCell id="4a6mSJSlYVr9C7WGBQAy-17" value="" style="endArrow=classic;html=1;entryX=1;entryY=0.75;entryDx=0;entryDy=0;" edge="1" parent="1" target="4a6mSJSlYVr9C7WGBQAy-2">
          <mxGeometry width="50" height="50" relative="1" as="geometry">
            <mxPoint x="577" y="525" as="sourcePoint" />
            <mxPoint x="680" y="440" as="targetPoint" />
          </mxGeometry>
        </mxCell>
        <mxCell id="4a6mSJSlYVr9C7WGBQAy-18" value="" style="endArrow=classic;html=1;exitX=0.5;exitY=1;exitDx=0;exitDy=0;entryX=0;entryY=0;entryDx=0;entryDy=49;entryPerimeter=0;" edge="1" parent="1" source="4a6mSJSlYVr9C7WGBQAy-2" target="4a6mSJSlYVr9C7WGBQAy-4">
          <mxGeometry width="50" height="50" relative="1" as="geometry">
            <mxPoint x="275" y="570" as="sourcePoint" />
            <mxPoint x="680" y="440" as="targetPoint" />
          </mxGeometry>
        </mxCell>
        <mxCell id="4a6mSJSlYVr9C7WGBQAy-19" value="" style="endArrow=classic;html=1;exitX=1.02;exitY=0.337;exitDx=0;exitDy=0;exitPerimeter=0;" edge="1" parent="1" source="4a6mSJSlYVr9C7WGBQAy-4">
          <mxGeometry width="50" height="50" relative="1" as="geometry">
            <mxPoint x="630" y="490" as="sourcePoint" />
            <mxPoint x="700" y="561" as="targetPoint" />
          </mxGeometry>
        </mxCell>
        <mxCell id="4a6mSJSlYVr9C7WGBQAy-22" value="Updates technical analysis" style="text;html=1;strokeColor=none;fillColor=none;align=center;verticalAlign=middle;whiteSpace=wrap;rounded=0;" vertex="1" parent="1">
          <mxGeometry x="680" y="650" width="180" height="40" as="geometry" />
        </mxCell>
        <mxCell id="4a6mSJSlYVr9C7WGBQAy-23" value="Queries DB for required data" style="text;html=1;align=center;verticalAlign=middle;resizable=0;points=[];autosize=1;strokeColor=none;fillColor=none;" vertex="1" parent="1">
          <mxGeometry x="135" y="660" width="170" height="20" as="geometry" />
        </mxCell>
        <mxCell id="4a6mSJSlYVr9C7WGBQAy-24" value="Triggers Technical Calculations" style="text;html=1;strokeColor=none;fillColor=none;align=center;verticalAlign=middle;whiteSpace=wrap;rounded=0;" vertex="1" parent="1">
          <mxGeometry x="410" y="401" width="170" height="26" as="geometry" />
        </mxCell>
        <mxCell id="4a6mSJSlYVr9C7WGBQAy-25" value="1. FrontEnd filter for shares based on fundamentals or technical features" style="text;html=1;strokeColor=none;fillColor=none;align=center;verticalAlign=middle;whiteSpace=wrap;rounded=0;" vertex="1" parent="1">
          <mxGeometry x="540" y="70" width="230" height="220" as="geometry" />
        </mxCell>
        <mxCell id="4a6mSJSlYVr9C7WGBQAy-26" value="Symbol: AAPL,&amp;nbsp;&lt;br&gt;MACD: greater than 10&lt;br&gt;P/E : LESS than 10" style="text;html=1;strokeColor=none;fillColor=none;align=center;verticalAlign=middle;whiteSpace=wrap;rounded=0;" vertex="1" parent="1">
          <mxGeometry x="560" y="260" width="220" height="70" as="geometry" />
        </mxCell>
        <mxCell id="4a6mSJSlYVr9C7WGBQAy-27" value="Basic Endpoint: &lt;br&gt;&lt;br&gt;Get / Symbol&lt;br&gt;Get /Symbol?BalanceSheet&amp;nbsp;" style="text;html=1;strokeColor=none;fillColor=none;align=center;verticalAlign=middle;whiteSpace=wrap;rounded=0;" vertex="1" parent="1">
          <mxGeometry x="850" y="240" width="230" height="20" as="geometry" />
        </mxCell>
      </root>
    </mxGraphModel>
  </diagram>
</mxfile>
